<svg id="Слой_1" data-name="Слой 1" xmlns="http://www.w3.org/2000/svg" viewBox="0 0 512 357.48"><defs><style>.cls-1{fill:red;}.cls-2{fill:#fff;}</style></defs><title>Монтажная область 1</title><path class="cls-1" d="M501.45,55.09A64.15,64.15,0,0,0,456.33,10C416.26-1,256-1,256-1S95.73-1,55.67,9.55A65.46,65.46,0,0,0,10.54,55.09C0,95.16,0,178.24,0,178.24s0,83.51,10.54,123.15a64.18,64.18,0,0,0,45.13,45.13c40.49,11,200.33,11,200.33,11s160.26,0,200.33-10.54a64.16,64.16,0,0,0,45.13-45.13C512,261.75,512,178.66,512,178.66S512.42,95.16,501.45,55.09Z"/><path class="cls-2" d="M205,255l133.27-76.76L205,101.48Z"/></svg>